<svg width="38" height="53" viewBox="0 0 38 53" fill="none" xmlns="http://www.w3.org/2000/svg">
<path fill-rule="evenodd" clip-rule="evenodd" d="M20.8808 34.4586C22.618 35.852 24.7697 36.6275 26.9964 36.6628C29.2231 36.6981 31.3983 35.9912 33.1788 34.6536C34.9594 33.3159 36.244 31.4237 36.8302 29.2752C37.4163 27.1267 37.2706 24.8442 36.4161 22.7877C35.7016 21.0605 34.5186 19.5675 33.0006 18.4769C34.2955 17.5487 35.3504 16.3252 36.0778 14.9078C36.8053 13.4904 37.1843 11.92 37.1834 10.3268C37.1834 7.66647 36.1266 5.11509 34.2455 3.23393C32.3643 1.35278 29.8129 0.29596 27.1526 0.29596H10.8524C8.72877 0.295346 6.65971 0.968747 4.94323 2.21918C3.22674 3.46962 1.9514 5.23257 1.30087 7.25413C0.650348 9.2757 0.658204 11.4516 1.32331 13.4684C1.98842 15.4852 3.27645 17.2389 5.00193 18.4769C3.70756 19.4056 2.65301 20.6292 1.92555 22.0465C1.1981 23.4638 0.818665 25.0339 0.818665 26.627C0.818665 28.22 1.1981 29.7902 1.92555 31.2075C2.65301 32.6247 3.70756 33.8484 5.00193 34.7771C3.60547 35.7791 2.48992 37.1232 1.76228 38.6803C1.03464 40.2375 0.71933 41.9555 0.846585 43.6695C0.97384 45.3836 1.5394 47.0362 2.489 48.4688C3.43861 49.9015 4.7404 51.066 6.26952 51.8509C7.79864 52.6357 9.50377 53.0145 11.2214 52.9508C12.939 52.8872 14.6114 52.3833 16.0782 51.4874C17.5451 50.5916 18.7571 49.3338 19.5981 47.8348C20.439 46.3358 20.8807 44.6459 20.8808 42.9271V34.4586ZM10.8499 4.05753C9.1872 4.05753 7.59258 4.71805 6.41686 5.89377C5.24114 7.06949 4.58063 8.66411 4.58063 10.3268C4.58063 11.9895 5.24114 13.5842 6.41686 14.7599C7.59258 15.9356 9.1872 16.5961 10.8499 16.5961H17.1192V4.05753H10.8499ZM17.1192 36.6579H10.8499C9.60997 36.6579 8.39787 37.0255 7.36689 37.7144C6.33591 38.4033 5.53236 39.3824 5.05785 40.528C4.58334 41.6735 4.45919 42.9341 4.70109 44.1502C4.94299 45.3663 5.54009 46.4834 6.41686 47.3602C7.29364 48.237 8.41072 48.8341 9.62684 49.076C10.843 49.3179 12.1035 49.1937 13.2491 48.7192C14.3946 48.2447 15.3738 47.4412 16.0626 46.4102C16.7515 45.3792 17.1192 44.1671 17.1192 42.9271V36.6579ZM10.8499 20.3577C9.1872 20.3577 7.59258 21.0182 6.41686 22.1939C5.24114 23.3696 4.58063 24.9643 4.58063 26.627C4.58063 28.2897 5.24114 29.8843 6.41686 31.06C7.59258 32.2358 9.1872 32.8963 10.8499 32.8963H17.1192V20.3577H10.8499ZM20.8808 26.627C20.8808 28.29 21.5414 29.885 22.7174 31.0609C23.8933 32.2369 25.4883 32.8975 27.1513 32.8975C28.8144 32.8975 30.4093 32.2369 31.5853 31.0609C32.7612 29.885 33.4219 28.29 33.4219 26.627C33.4219 24.9639 32.7612 23.369 31.5853 22.193C30.4093 21.0171 28.8144 20.3564 27.1513 20.3564C25.4883 20.3564 23.8933 21.0171 22.7174 22.193C21.5414 23.369 20.8808 24.9639 20.8808 26.627ZM27.1501 16.5961C28.8128 16.5961 30.4074 15.9356 31.5831 14.7599C32.7589 13.5842 33.4194 11.9895 33.4194 10.3268C33.4194 8.66411 32.7589 7.06949 31.5831 5.89377C30.4074 4.71805 28.8128 4.05753 27.1501 4.05753H20.8808V16.5961H27.1501Z" fill="#959595"/>
</svg>
